<svg version="1.1" id="Layer_1" xmlns="http://www.w3.org/2000/svg" xmlns:xlink="http://www.w3.org/1999/xlink" x="0px" y="0px"
	 width="100%" viewBox="0 0 850 410" enable-background="new 0 0 850 410" xml:space="preserve">
<path fill="#000000" opacity="1.000000" stroke="none" 
	d="
M493.000000,411.000000 
	C328.666656,411.000000 164.833328,411.000000 1.000000,411.000000 
	C1.000000,274.333344 1.000000,137.666672 1.000000,1.000000 
	C284.333344,1.000000 567.666687,1.000000 851.000000,1.000000 
	C851.000000,137.666672 851.000000,274.333344 851.000000,411.000000 
	C731.833313,411.000000 612.666687,411.000000 493.000000,411.000000 
M120.006470,239.118011 
	C120.042290,238.092560 120.078110,237.067093 120.892769,236.002533 
	C121.927826,235.945908 122.962883,235.889297 124.922882,235.982941 
	C130.281296,235.933121 135.639694,235.883316 141.921326,235.984329 
	C146.945465,235.933502 151.969589,235.882690 157.921204,235.983749 
	C168.390579,235.988586 178.878784,236.350800 189.318909,235.800537 
	C192.876221,235.613052 197.282135,234.040298 199.633133,231.535614 
	C208.876556,221.688019 212.699463,209.442871 213.821899,195.616837 
	C213.490616,190.746948 213.159348,185.877060 212.765305,180.275894 
	C212.190887,177.479584 211.616455,174.683258 211.003754,171.106308 
	C210.941956,170.069534 210.880142,169.032745 210.703674,167.271255 
	C209.507690,164.862350 208.311722,162.453445 207.749313,159.736771 
	C205.179977,155.785736 202.610626,151.834702 199.730164,147.242828 
	C190.295135,140.227600 179.559479,143.939041 168.960602,142.932892 
	C168.960602,152.001038 168.960602,160.449585 168.288177,169.251556 
	C166.119278,180.591049 154.438965,192.309845 138.072266,192.018265 
	C123.610954,192.012360 109.143776,192.253571 94.690498,191.909912 
	C85.708466,191.696350 73.671669,200.704651 73.092705,213.082214 
	C72.689583,221.700516 73.112328,230.357468 73.013443,239.921692 
	C73.063339,245.276993 73.113235,250.632278 73.016548,256.781616 
	C73.066368,257.853821 73.116188,258.926025 73.016762,260.765106 
	C73.735817,262.841187 74.454880,264.917267 75.031807,267.709198 
	C77.671783,270.507965 80.311760,273.306732 83.263672,276.750977 
	C87.507454,278.444855 91.751244,280.138733 96.708954,282.185608 
	C104.151360,283.457214 111.641876,285.969971 119.023895,285.683838 
	C128.100922,285.331970 137.313599,283.395630 146.051758,280.763489 
	C155.479477,277.923645 163.354126,272.113983 164.681366,261.365967 
	C165.507599,254.675125 164.833389,247.798981 164.913132,240.471848 
	C164.607742,240.369705 164.302353,240.267563 163.074478,240.013565 
	C158.050583,240.063538 153.026688,240.113510 147.074585,240.018555 
	C138.068222,239.974930 129.061859,239.931305 120.006470,239.118011 
M113.083244,95.042519 
	C105.724991,95.718102 98.214592,95.694374 91.048546,97.253426 
	C82.837303,99.039871 74.958321,103.112389 73.568077,112.320740 
	C72.315598,120.616676 73.154060,129.232040 73.188255,137.706070 
	C73.189766,138.081589 74.363846,138.452393 75.919838,138.972321 
	C85.943085,138.929321 95.966324,138.886322 106.899498,138.985352 
	C110.558617,139.007385 114.217735,139.029419 117.970467,139.826797 
	C117.946480,140.866730 117.922501,141.906647 116.975067,142.994186 
	C109.313293,143.054413 101.651527,143.114639 93.060837,143.052490 
	C85.370476,143.090225 77.680122,143.127975 69.061829,143.039734 
	C64.237129,143.027710 59.387432,142.695618 54.592945,143.070221 
	C44.594147,143.851440 33.847546,149.487320 29.884176,160.116455 
	C25.667440,171.425110 24.380762,183.046585 25.021296,195.851990 
	C25.348846,198.755783 25.360519,201.739502 26.070822,204.546448 
	C27.475857,210.098816 29.267147,215.553467 31.000706,221.763763 
	C34.320210,229.284744 39.663136,234.365677 48.920639,235.966278 
	C55.469173,235.966278 62.017708,235.966278 68.388031,235.966278 
	C68.994133,225.631271 69.568077,215.844711 70.742699,205.677673 
	C73.268974,197.727600 79.336647,193.056625 86.890228,189.020874 
	C88.588722,188.657120 90.287216,188.293350 92.917152,188.069672 
	C108.239861,188.057800 123.562706,188.074127 138.885071,187.994980 
	C140.614838,187.986038 142.341812,187.438644 144.858154,187.049377 
	C156.962982,185.560257 164.449921,176.197906 164.893707,163.866730 
	C165.347504,151.257370 164.890823,138.615250 164.950272,125.095642 
	C164.963287,123.447723 165.231659,121.753906 164.945129,120.159828 
	C163.703766,113.253845 162.524506,106.247864 154.740662,102.274902 
	C149.379471,97.512383 142.958923,95.991325 135.232925,95.752518 
	C128.151306,95.557732 121.069702,95.362938 113.083244,95.042519 
M265.159180,157.437759 
	C265.112274,195.939926 265.060760,234.442108 265.055878,272.944275 
	C265.055786,273.621613 265.616211,274.298981 266.230957,275.644104 
	C271.199554,277.557861 276.168152,279.471588 282.047546,281.736145 
	C282.047546,263.699554 282.047546,246.735809 282.047546,229.071106 
	C291.410553,234.010117 300.391357,236.109619 310.279968,236.222275 
	C325.765900,236.398682 338.745911,221.816650 341.999725,211.187180 
	C346.476227,196.563736 346.428802,181.872009 341.951019,167.363632 
	C336.837921,150.796799 326.572845,140.864944 308.652832,140.152100 
	C297.360474,139.702896 286.335815,142.371017 276.439423,148.027557 
	C272.503296,150.277344 269.398041,153.980774 265.159180,157.437759 
M437.001221,207.500000 
	C437.001282,206.000412 437.001404,204.500824 437.001373,203.001236 
	C437.001160,184.338425 437.006531,165.675629 436.993561,147.012817 
	C436.991974,144.700897 437.399200,142.032715 433.820557,141.996872 
	C429.711487,141.955704 425.601746,141.987335 421.001190,141.987335 
	C421.001190,144.403656 421.001190,146.200424 421.001160,147.997208 
	C421.000916,169.159500 420.907959,190.322556 421.087097,211.483337 
	C421.118805,215.228867 419.908020,217.607880 416.518127,218.756958 
	C411.106476,220.591385 405.730774,223.200073 400.164154,223.772247 
	C387.964417,225.026260 376.440765,217.733643 376.858978,203.435318 
	C377.418976,184.288986 377.005096,165.113968 376.986481,145.951279 
	C376.984802,144.209732 376.816742,142.468369 376.684326,139.928482 
	C371.909332,141.651794 368.025848,143.343704 363.978851,144.421494 
	C360.776398,145.274353 359.917725,146.926956 359.937012,150.075882 
	C360.059326,170.070999 359.796173,190.071045 360.170990,210.059891 
	C360.247314,214.129501 361.772858,218.592361 363.883514,222.125244 
	C370.444031,233.106293 385.743011,238.614044 399.087769,235.506485 
	C406.244293,233.839966 413.421234,232.261108 420.999603,230.549957 
	C420.999603,234.615189 421.010101,238.753891 420.997620,242.892532 
	C420.962738,254.442093 415.455292,262.469482 404.420166,265.915100 
	C397.880859,267.956970 391.062531,269.105164 383.735260,270.802124 
	C384.695679,274.183746 385.650238,277.544769 386.690033,281.205963 
	C397.274933,280.485077 407.190765,278.621155 416.567291,274.155365 
	C428.756226,268.350067 435.088440,258.506592 435.902924,245.327927 
	C436.660095,233.076126 436.665009,220.777832 437.001221,207.500000 
M529.033997,102.522667 
	C529.033997,98.275902 529.033997,94.029137 529.033997,89.157166 
	C524.317932,90.469063 520.618103,91.638832 516.848694,92.506180 
	C513.288574,93.325348 511.884003,95.007492 511.898834,98.965843 
	C512.061462,142.285263 511.998169,185.605530 512.010681,228.925552 
	C512.011108,230.517487 512.158875,232.109406 512.235474,233.650879 
	C518.076233,233.650879 523.322083,233.650879 529.033997,233.650879 
	C529.033997,231.509521 529.033936,229.712204 529.033936,227.914886 
	C529.033936,210.586884 529.033936,193.258865 529.033936,175.930862 
	C529.033936,162.549545 530.396423,160.616806 543.139954,156.069077 
	C544.533752,155.571671 545.994019,155.263611 547.410706,154.826416 
	C556.174805,152.121857 563.821655,155.101562 567.537354,163.278320 
	C568.991272,166.477692 569.849304,170.227814 569.893677,173.740784 
	C570.122986,191.898987 570.000793,210.061615 570.001221,228.222702 
	C570.001282,229.992447 570.001221,231.762192 570.001221,233.715103 
	C575.927368,233.715103 581.170288,233.715103 586.674316,233.715103 
	C586.798035,232.677734 586.974670,231.883850 586.975281,231.089828 
	C586.992249,210.429550 587.221985,189.764664 586.812805,169.112518 
	C586.722717,164.565140 585.189636,159.575226 582.885315,155.627075 
	C574.374878,141.045441 558.314819,138.916641 542.794495,144.686050 
	C538.251709,146.374756 533.875183,148.511078 529.034058,150.610703 
	C529.034058,134.493042 529.034058,119.004463 529.033997,102.522667 
M610.484863,222.918411 
	C614.053345,225.818848 617.387695,229.086273 621.239197,231.543076 
	C629.183044,236.610306 638.283020,236.766922 647.180725,235.829437 
	C656.803345,234.815567 665.501282,230.597336 671.359436,222.867020 
	C683.776001,206.482498 686.088928,188.021988 679.961182,168.600601 
	C672.908264,146.246704 649.130737,135.086517 628.463562,142.086670 
	C609.100525,148.645126 600.804382,164.297150 599.098083,182.773361 
	C597.766846,197.189240 601.697693,210.445419 610.484863,222.918411 
M769.000000,212.499863 
	C769.000000,196.501785 769.056519,180.503418 768.970825,164.505798 
	C768.938782,158.527023 767.044373,153.317886 762.566406,148.968826 
	C755.967651,142.559891 747.731873,140.258728 739.126953,140.151367 
	C723.501099,139.956406 709.367615,145.107071 696.970581,154.634201 
	C695.756775,155.567032 695.089478,157.911819 695.080627,159.605988 
	C694.959351,182.769287 694.993774,205.933441 695.010315,229.097366 
	C695.011353,230.551392 695.180847,232.005280 695.279602,233.581894 
	C700.958923,233.581894 706.321838,233.581894 711.996582,233.581894 
	C711.996582,231.347122 711.996582,229.530258 711.996582,227.713379 
	C711.996704,208.215668 711.996277,188.717972 711.997192,169.220261 
	C711.997742,156.736816 711.910950,156.428391 723.971436,153.000885 
	C739.290222,148.647354 753.266541,156.358444 753.049744,173.824356 
	C752.824280,191.986099 752.999207,210.152786 752.999023,228.317322 
	C752.999023,230.078156 752.998962,231.839005 752.998962,233.683228 
	C758.664062,233.683228 763.575623,233.683228 769.000000,233.683228 
	C769.000000,226.748550 769.000000,220.124161 769.000000,212.499863 
M495.852264,152.051804 
	C495.900665,150.721329 495.831635,149.374146 496.018433,148.063385 
	C496.707916,143.225555 494.690796,141.418686 489.864563,141.899094 
	C486.447998,142.239182 482.970337,141.964966 478.876312,141.964966 
	C478.876312,131.703232 478.876312,122.026360 478.876312,111.932289 
	C474.255951,113.447151 470.412079,114.903526 466.458923,115.944954 
	C462.940430,116.871880 461.773468,118.808479 461.925507,122.403870 
	C462.196838,128.820496 462.001892,135.256836 462.001892,141.580307 
	C451.266052,142.619766 450.171356,144.188416 452.860565,153.814789 
	C455.738586,153.952087 458.662384,154.091553 462.001678,154.250854 
	C462.001678,156.500992 462.001770,158.301178 462.001678,160.101379 
	C462.000854,176.928421 461.842438,193.757629 462.074371,210.581467 
	C462.171021,217.592239 463.807343,224.065567 469.536346,229.240906 
	C474.856445,234.046814 481.178741,235.352127 487.678833,235.874695 
	C496.379517,236.574173 496.569702,236.037979 495.820282,227.122711 
	C495.796234,226.837067 495.482880,226.575745 495.299164,226.306488 
	C483.624634,225.285248 478.489105,222.013702 478.891846,208.003448 
	C479.356049,191.856155 478.992218,175.685287 479.010986,159.524689 
	C479.013000,157.770096 479.167145,156.015686 479.231964,154.655151 
	C485.076904,154.009811 490.269867,153.436462 495.852264,152.051804 
M80.671364,317.971222 
	C89.365700,319.313416 98.047897,321.663910 106.757141,321.768768 
	C120.919434,321.939331 135.123566,320.947113 149.261703,319.832581 
	C156.297058,319.277954 163.350311,317.625732 167.931076,311.027405 
	C165.060196,305.579102 159.519974,304.345551 154.328842,303.197754 
	C141.298004,300.316467 128.131851,299.201935 114.691353,299.823975 
	C103.279655,300.352173 91.830254,300.079376 80.990845,304.153595 
	C77.404572,305.501556 72.134827,307.779816 71.543213,310.486908 
	C70.516487,315.184967 76.127495,316.304443 80.671364,317.971222 
M821.092407,124.863029 
	C821.565491,123.887939 822.038574,122.912849 823.019653,120.890770 
	C823.019653,124.210030 822.852661,126.370285 823.100647,128.481827 
	C823.201965,129.344345 824.201843,130.101303 824.792908,130.906265 
	C825.522217,130.071655 826.854126,129.257416 826.883179,128.399170 
	C827.072998,122.784607 826.980835,117.160530 826.980835,110.968117 
	C818.071289,111.317848 821.565796,120.227852 817.335938,123.231499 
	C816.263062,120.139091 815.342834,116.819595 813.920959,113.731026 
	C813.384460,112.565651 811.687683,111.934425 810.519775,111.059708 
	C809.671631,112.252289 808.179504,113.399696 808.092163,114.645645 
	C807.790405,118.947182 807.806580,123.294205 808.085144,127.599106 
	C808.168457,128.885376 809.507385,130.090393 810.271057,131.332626 
	C810.768860,131.128113 811.266724,130.923584 811.764526,130.719070 
	C811.764526,127.832062 811.764526,124.945053 811.764526,122.058052 
	C812.068237,122.008240 812.371948,121.958435 812.675598,121.908623 
	C813.699890,124.898102 814.724121,127.887573 815.700989,130.738846 
	C820.411804,131.769028 819.809753,127.826797 821.092407,124.863029 
M800.307068,130.683228 
	C800.670410,125.306816 801.033691,119.930397 801.394043,114.598228 
	C803.375549,114.097862 805.220154,113.632057 807.064758,113.166252 
	C806.987427,112.670258 806.910034,112.174255 806.832703,111.678253 
	C801.628113,111.678253 796.423462,111.678253 791.218872,111.678253 
	C791.107117,112.126106 790.995422,112.573952 790.883667,113.021805 
	C792.816040,113.563416 794.748413,114.105034 797.005981,114.737801 
	C797.005981,119.079277 796.840210,123.379570 797.117554,127.651077 
	C797.190918,128.780762 798.630005,129.821762 800.307068,130.683228 
M735.508484,128.847687 
	C736.342468,126.300514 736.365356,124.029472 732.868591,124.161903 
	C732.090027,124.191383 730.829956,125.781982 730.725647,126.754059 
	C730.361328,130.148300 732.207703,130.649170 735.508484,128.847687 
z"/>
<path fill="#636464" opacity="1.000000" stroke="none" 
	d="
M265.914490,157.022430 
	C269.398041,153.980774 272.503296,150.277344 276.439423,148.027557 
	C286.335815,142.371017 297.360474,139.702896 308.652832,140.152100 
	C326.572845,140.864944 336.837921,150.796799 341.951019,167.363632 
	C346.428802,181.872009 346.476227,196.563736 341.999725,211.187180 
	C338.745911,221.816650 325.765900,236.398682 310.279968,236.222275 
	C300.391357,236.109619 291.410553,234.010117 282.047546,229.071106 
	C282.047546,246.735809 282.047546,263.699554 282.047546,281.736145 
	C276.168152,279.471588 271.199554,277.557861 266.095367,274.843109 
	C265.944672,235.035553 265.929565,196.028976 265.914490,157.022430 
M304.424316,152.000763 
	C299.593719,152.854477 294.582245,153.160461 289.972504,154.682938 
	C281.896820,157.350067 282.000671,157.662735 282.000977,166.296738 
	C282.001404,179.770920 282.684601,193.292923 281.746582,206.701492 
	C281.176727,214.847321 284.346619,218.391586 291.242401,221.191864 
	C305.289673,226.896286 320.601288,224.600281 324.565826,205.483749 
	C327.368744,191.968536 327.330872,178.212631 322.855835,164.887405 
	C320.158630,156.855942 313.519196,152.214417 304.424316,152.000763 
z"/>
<path fill="#636464" opacity="1.000000" stroke="none" 
	d="
M437.001160,208.000000 
	C436.665009,220.777832 436.660095,233.076126 435.902924,245.327927 
	C435.088440,258.506592 428.756226,268.350067 416.567291,274.155365 
	C407.190765,278.621155 397.274933,280.485077 386.690033,281.205963 
	C385.650238,277.544769 384.695679,274.183746 383.735260,270.802124 
	C391.062531,269.105164 397.880859,267.956970 404.420166,265.915100 
	C415.455292,262.469482 420.962738,254.442093 420.997620,242.892532 
	C421.010101,238.753891 420.999603,234.615189 420.999603,230.549957 
	C413.421234,232.261108 406.244293,233.839966 399.087769,235.506485 
	C385.743011,238.614044 370.444031,233.106293 363.883514,222.125244 
	C361.772858,218.592361 360.247314,214.129501 360.170990,210.059891 
	C359.796173,190.071045 360.059326,170.070999 359.937012,150.075882 
	C359.917725,146.926956 360.776398,145.274353 363.978851,144.421494 
	C368.025848,143.343704 371.909332,141.651794 376.684326,139.928482 
	C376.816742,142.468369 376.984802,144.209732 376.986481,145.951279 
	C377.005096,165.113968 377.418976,184.288986 376.858978,203.435318 
	C376.440765,217.733643 387.964417,225.026260 400.164154,223.772247 
	C405.730774,223.200073 411.106476,220.591385 416.518127,218.756958 
	C419.908020,217.607880 421.118805,215.228867 421.087097,211.483337 
	C420.907959,190.322556 421.000916,169.159500 421.001160,147.997208 
	C421.001190,146.200424 421.001190,144.403656 421.001190,141.987335 
	C425.601746,141.987335 429.711487,141.955704 433.820557,141.996872 
	C437.399200,142.032715 436.991974,144.700897 436.993561,147.012817 
	C437.006531,165.675629 437.001160,184.338425 437.001373,203.001236 
	C437.001404,204.500824 437.001282,206.000412 437.001160,208.000000 
z"/>
<path fill="#646464" opacity="1.000000" stroke="none" 
	d="
M529.034058,103.019272 
	C529.034058,119.004463 529.034058,134.493042 529.034058,150.610703 
	C533.875183,148.511078 538.251709,146.374756 542.794495,144.686050 
	C558.314819,138.916641 574.374878,141.045441 582.885315,155.627075 
	C585.189636,159.575226 586.722717,164.565140 586.812805,169.112518 
	C587.221985,189.764664 586.992249,210.429550 586.975281,231.089828 
	C586.974670,231.883850 586.798035,232.677734 586.674316,233.715103 
	C581.170288,233.715103 575.927368,233.715103 570.001221,233.715103 
	C570.001221,231.762192 570.001282,229.992447 570.001221,228.222702 
	C570.000793,210.061615 570.122986,191.898987 569.893677,173.740784 
	C569.849304,170.227814 568.991272,166.477692 567.537354,163.278320 
	C563.821655,155.101562 556.174805,152.121857 547.410706,154.826416 
	C545.994019,155.263611 544.533752,155.571671 543.139954,156.069077 
	C530.396423,160.616806 529.033936,162.549545 529.033936,175.930862 
	C529.033936,193.258865 529.033936,210.586884 529.033936,227.914886 
	C529.033936,229.712204 529.033997,231.509521 529.033997,233.650879 
	C523.322083,233.650879 518.076233,233.650879 512.235474,233.650879 
	C512.158875,232.109406 512.011108,230.517487 512.010681,228.925552 
	C511.998169,185.605530 512.061462,142.285263 511.898834,98.965843 
	C511.884003,95.007492 513.288574,93.325348 516.848694,92.506180 
	C520.618103,91.638832 524.317932,90.469063 529.033997,89.157166 
	C529.033997,94.029137 529.033997,98.275902 529.034058,103.019272 
z"/>
<path fill="#646464" opacity="1.000000" stroke="none" 
	d="
M610.292175,222.612274 
	C601.697693,210.445419 597.766846,197.189240 599.098083,182.773361 
	C600.804382,164.297150 609.100525,148.645126 628.463562,142.086670 
	C649.130737,135.086517 672.908264,146.246704 679.961182,168.600601 
	C686.088928,188.021988 683.776001,206.482498 671.359436,222.867020 
	C665.501282,230.597336 656.803345,234.815567 647.180725,235.829437 
	C638.283020,236.766922 629.183044,236.610306 621.239197,231.543076 
	C617.387695,229.086273 614.053345,225.818848 610.292175,222.612274 
M619.013062,205.248322 
	C619.726196,207.258484 620.254578,209.358902 621.184753,211.263016 
	C624.954895,218.980682 630.496277,224.629059 639.621460,224.945114 
	C650.896118,225.335602 657.020691,220.706329 660.364197,212.919449 
	C666.712219,198.135284 667.097534,182.803452 661.717407,167.569626 
	C658.552795,158.609009 649.795166,151.781387 641.276733,152.136978 
	C632.863831,152.488159 625.037720,155.780273 621.381042,163.711121 
	C615.364868,176.759232 615.777466,190.605530 619.013062,205.248322 
z"/>
<path fill="#636464" opacity="1.000000" stroke="none" 
	d="
M769.000000,212.999817 
	C769.000000,220.124161 769.000000,226.748550 769.000000,233.683228 
	C763.575623,233.683228 758.664062,233.683228 752.998962,233.683228 
	C752.998962,231.839005 752.999023,230.078156 752.999023,228.317322 
	C752.999207,210.152786 752.824280,191.986099 753.049744,173.824356 
	C753.266541,156.358444 739.290222,148.647354 723.971436,153.000885 
	C711.910950,156.428391 711.997742,156.736816 711.997192,169.220261 
	C711.996277,188.717972 711.996704,208.215668 711.996582,227.713379 
	C711.996582,229.530258 711.996582,231.347122 711.996582,233.581894 
	C706.321838,233.581894 700.958923,233.581894 695.279602,233.581894 
	C695.180847,232.005280 695.011353,230.551392 695.010315,229.097366 
	C694.993774,205.933441 694.959351,182.769287 695.080627,159.605988 
	C695.089478,157.911819 695.756775,155.567032 696.970581,154.634201 
	C709.367615,145.107071 723.501099,139.956406 739.126953,140.151367 
	C747.731873,140.258728 755.967651,142.559891 762.566406,148.968826 
	C767.044373,153.317886 768.938782,158.527023 768.970825,164.505798 
	C769.056519,180.503418 769.000000,196.501785 769.000000,212.999817 
z"/>
<path fill="#636464" opacity="1.000000" stroke="none" 
	d="
M495.657532,152.457458 
	C490.269867,153.436462 485.076904,154.009811 479.231964,154.655151 
	C479.167145,156.015686 479.013000,157.770096 479.010986,159.524689 
	C478.992218,175.685287 479.356049,191.856155 478.891846,208.003448 
	C478.489105,222.013702 483.624634,225.285248 495.301758,226.304779 
	C495.482880,226.575745 495.796234,226.837067 495.820282,227.122711 
	C496.569702,236.037979 496.379517,236.574173 487.678833,235.874695 
	C481.178741,235.352127 474.856445,234.046814 469.536346,229.240906 
	C463.807343,224.065567 462.171021,217.592239 462.074371,210.581467 
	C461.842438,193.757629 462.000854,176.928421 462.001678,160.101379 
	C462.001770,158.301178 462.001678,156.500992 462.001678,154.250854 
	C458.662384,154.091553 455.738586,153.952087 452.860565,153.814789 
	C450.171356,144.188416 451.266052,142.619766 462.001892,141.580307 
	C462.001892,135.256836 462.196838,128.820496 461.925507,122.403870 
	C461.773468,118.808479 462.940430,116.871880 466.458923,115.944954 
	C470.412079,114.903526 474.255951,113.447151 478.876312,111.932289 
	C478.876312,122.026360 478.876312,131.703232 478.876312,141.964966 
	C482.970337,141.964966 486.447998,142.239182 489.864563,141.899094 
	C494.690796,141.418686 496.707916,143.225555 496.018433,148.063385 
	C495.831635,149.374146 495.900665,150.721329 495.657532,152.457458 
z"/>
<path fill="#3C79A9" opacity="1.000000" stroke="none" 
	d="
M93.989754,143.174866 
	C101.651527,143.114639 109.313293,143.054413 117.719940,143.133789 
	C118.416473,144.670792 118.898499,146.442566 118.224060,147.398010 
	C115.845070,150.768311 113.100441,153.884705 110.438698,157.050476 
	C102.768860,166.172684 95.016922,175.226959 87.455696,184.438019 
	C86.522606,185.574707 86.549141,187.499115 86.130997,189.058502 
	C79.336647,193.056625 73.268974,197.727600 70.090836,205.903534 
	C68.598549,206.622040 67.556374,206.938522 66.948761,207.634430 
	C60.553745,214.958588 54.085899,222.229874 48.026489,229.825546 
	C47.042450,231.059097 47.953156,233.804169 47.988071,235.850586 
	C39.663136,234.365677 34.320210,229.284744 31.246243,221.235046 
	C35.727436,215.867447 39.988823,211.050812 44.193230,206.184937 
	C52.207760,196.909485 60.210751,187.623886 68.179489,178.309082 
	C76.367928,168.737473 84.611252,159.208633 92.564102,149.444061 
	C93.776863,147.955032 93.550499,145.293884 93.989754,143.174866 
z"/>
<path fill="#3772A2" opacity="1.000000" stroke="none" 
	d="
M86.510605,189.039688 
	C86.549141,187.499115 86.522606,185.574707 87.455696,184.438019 
	C95.016922,175.226959 102.768860,166.172684 110.438698,157.050476 
	C113.100441,153.884705 115.845070,150.768311 118.224060,147.398010 
	C118.898499,146.442566 118.416473,144.670792 118.181664,143.109985 
	C117.922501,141.906647 117.946480,140.866730 118.281494,139.479034 
	C121.690292,141.283966 123.897598,140.963242 126.493835,137.743027 
	C133.547821,128.993683 141.128540,120.671165 148.368912,112.068764 
	C150.799377,109.181107 152.833618,105.959969 155.048950,102.891266 
	C162.524506,106.247864 163.703766,113.253845 164.945129,120.159828 
	C165.231659,121.753906 164.963287,123.447723 164.522339,125.547363 
	C162.502213,126.729080 160.531067,127.088615 159.388092,128.257782 
	C155.810074,131.917847 152.502838,135.847595 149.165436,139.736984 
	C138.081421,152.654160 126.991890,165.567047 115.998390,178.561035 
	C113.789223,181.172211 111.992653,184.132462 109.538216,186.961945 
	C103.375626,187.304626 97.680672,187.617111 91.985710,187.929581 
	C90.287216,188.293350 88.588722,188.657120 86.510605,189.039688 
z"/>
<path fill="#4281B3" opacity="1.000000" stroke="none" 
	d="
M93.525299,143.113678 
	C93.550499,145.293884 93.776863,147.955032 92.564102,149.444061 
	C84.611252,159.208633 76.367928,168.737473 68.179489,178.309082 
	C60.210751,187.623886 52.207760,196.909485 44.193230,206.184937 
	C39.988823,211.050812 35.727436,215.867447 31.195265,220.877411 
	C29.267147,215.553467 27.475857,210.098816 26.070822,204.546448 
	C25.360519,201.739502 25.348846,198.755783 25.421803,195.359741 
	C27.337122,193.617920 29.071907,192.557236 30.332462,191.089294 
	C41.935516,177.577408 53.487816,164.021454 64.970062,150.406784 
	C66.855057,148.171692 68.326950,145.588196 69.989761,143.165710 
	C77.680122,143.127975 85.370476,143.090225 93.525299,143.113678 
z"/>
<path fill="#FFE366" opacity="1.000000" stroke="none" 
	d="
M200.041290,147.883667 
	C202.610626,151.834702 205.179977,155.785736 207.073257,159.929474 
	C204.651596,161.050583 202.778152,161.799438 201.181091,162.936462 
	C190.654236,170.431046 180.229767,178.069611 169.691925,185.548538 
	C140.080612,206.564270 110.403641,227.487671 80.838737,248.568359 
	C77.973541,250.611343 75.707382,253.494461 73.163132,255.987579 
	C73.113235,250.632278 73.063339,245.276993 73.429825,239.398712 
	C75.294090,238.083633 76.837914,237.426880 78.175346,236.478958 
	C96.438438,223.534958 114.690369,210.574966 132.891922,197.544693 
	C135.086884,195.973358 136.971313,193.968216 138.999680,192.164154 
	C154.438965,192.309845 166.119278,180.591049 168.874817,169.322235 
	C171.395416,168.876968 173.643280,168.824997 175.209503,167.765457 
	C182.330261,162.948196 189.326645,157.937347 196.206619,152.781128 
	C197.808548,151.580551 198.779846,149.538528 200.041290,147.883667 
z"/>
<path fill="#316A9A" opacity="1.000000" stroke="none" 
	d="
M110.005844,186.931763 
	C111.992653,184.132462 113.789223,181.172211 115.998390,178.561035 
	C126.991890,165.567047 138.081421,152.654160 149.165436,139.736984 
	C152.502838,135.847595 155.810074,131.917847 159.388092,128.257782 
	C160.531067,127.088615 162.502213,126.729080 164.463562,125.993279 
	C164.890823,138.615250 165.347504,151.257370 164.893707,163.866730 
	C164.449921,176.197906 156.962982,185.560257 143.993851,187.060364 
	C132.088318,187.024811 121.047081,186.978287 110.005844,186.931763 
z"/>
<path fill="#FFD53D" opacity="1.000000" stroke="none" 
	d="
M148.002792,240.163483 
	C153.026688,240.113510 158.050583,240.063538 163.647125,240.255707 
	C164.391602,240.706360 164.595871,240.875748 164.832581,241.005997 
	C164.833389,247.798981 165.507599,254.675125 164.681366,261.365967 
	C163.354126,272.113983 155.479477,277.923645 146.051758,280.763489 
	C137.313599,283.395630 128.100922,285.331970 119.023895,285.683838 
	C111.641876,285.969971 104.151360,283.457214 96.420578,281.680847 
	C96.906471,280.360016 97.574837,279.397491 98.470825,278.749847 
	C113.489594,267.893524 128.586945,257.144745 143.515854,246.166779 
	C145.441635,244.750641 146.527725,242.192566 148.002792,240.163483 
M137.016525,261.507660 
	C137.504456,266.962738 139.515594,268.987061 144.460693,269.000732 
	C148.258286,269.011230 151.632523,265.949402 151.996704,262.162506 
	C152.318253,258.819000 149.294083,254.505722 146.284149,254.014893 
	C141.137695,253.175674 138.260513,255.241760 137.016525,261.507660 
z"/>
<path fill="#FFE771" opacity="1.000000" stroke="none" 
	d="
M138.535980,192.091217 
	C136.971313,193.968216 135.086884,195.973358 132.891922,197.544693 
	C114.690369,210.574966 96.438438,223.534958 78.175346,236.478958 
	C76.837914,237.426880 75.294090,238.083633 73.506172,238.936432 
	C73.112328,230.357468 72.689583,221.700516 73.092705,213.082214 
	C73.671669,200.704651 85.708466,191.696350 94.690498,191.909912 
	C109.143776,192.253571 123.610954,192.012360 138.535980,192.091217 
z"/>
<path fill="#FFE05D" opacity="1.000000" stroke="none" 
	d="
M73.089844,256.384613 
	C75.707382,253.494461 77.973541,250.611343 80.838737,248.568359 
	C110.403641,227.487671 140.080612,206.564270 169.691925,185.548538 
	C180.229767,178.069611 190.654236,170.431046 201.181091,162.936462 
	C202.778152,161.799438 204.651596,161.050583 206.756470,160.083359 
	C208.311722,162.453445 209.507690,164.862350 210.389862,167.636749 
	C208.972656,168.292282 207.669205,168.298508 206.795471,168.914352 
	C190.495453,180.403564 174.221329,191.929977 157.992645,203.519806 
	C132.300873,221.867798 106.689560,240.329224 80.890846,258.525208 
	C78.940041,259.901123 75.769547,259.547760 73.166008,259.998230 
	C73.116188,258.926025 73.066368,257.853821 73.089844,256.384613 
z"/>
<path fill="#4280B2" opacity="1.000000" stroke="none" 
	d="
M105.989571,138.843338 
	C95.966324,138.886322 85.943085,138.929321 75.548851,138.582550 
	C79.799034,133.757278 84.420204,129.321762 89.430634,124.930313 
	C91.548691,125.157112 93.389946,125.816132 94.986595,125.439148 
	C101.492874,123.902924 102.730782,117.428429 98.213730,110.902252 
	C106.409622,108.255928 108.502304,100.030716 113.988091,95.168144 
	C121.069702,95.362938 128.151306,95.557732 135.612289,96.321457 
	C135.269043,98.487206 134.852829,100.337822 133.774323,101.639847 
	C126.494667,110.428246 118.942024,118.993217 111.770630,127.867188 
	C109.186302,131.065063 105.105553,133.722839 105.989571,138.843338 
z"/>
<path fill="#FFDE58" opacity="1.000000" stroke="none" 
	d="
M73.091385,260.381653 
	C75.769547,259.547760 78.940041,259.901123 80.890846,258.525208 
	C106.689560,240.329224 132.300873,221.867798 157.992645,203.519806 
	C174.221329,191.929977 190.495453,180.403564 206.795471,168.914352 
	C207.669205,168.298508 208.972656,168.292282 210.447205,167.999115 
	C210.880142,169.032745 210.941956,170.069534 210.942413,171.833527 
	C209.675400,173.656509 208.566727,174.888260 207.249603,175.827744 
	C185.137268,191.599533 162.974945,207.301346 140.882736,223.101227 
	C135.151047,227.200424 129.620743,231.581207 123.997940,235.832672 
	C122.962883,235.889297 121.927826,235.945908 120.166550,236.089935 
	C116.844254,238.852386 114.532822,241.902908 111.596367,244.128983 
	C104.108864,249.805115 96.498138,255.352829 88.624069,260.470947 
	C84.478836,263.165314 79.678474,264.851776 75.173943,266.993347 
	C74.454880,264.917267 73.735817,262.841187 73.091385,260.381653 
z"/>
<path fill="#4888BB" opacity="1.000000" stroke="none" 
	d="
M69.525795,143.102722 
	C68.326950,145.588196 66.855057,148.171692 64.970062,150.406784 
	C53.487816,164.021454 41.935516,177.577408 30.332462,191.089294 
	C29.071907,192.557236 27.337122,193.617920 25.493584,194.928558 
	C24.380762,183.046585 25.667440,171.425110 29.884176,160.116455 
	C33.847546,149.487320 44.594147,143.851440 54.592945,143.070221 
	C59.387432,142.695618 64.237129,143.027710 69.525795,143.102722 
z"/>
<path fill="#FFDA4A" opacity="1.000000" stroke="none" 
	d="
M156.993729,235.831863 
	C151.969589,235.882690 146.945465,235.933502 141.463257,235.537872 
	C141.859222,233.614120 142.361954,231.658310 143.621628,230.733505 
	C156.353119,221.386200 169.196976,212.191605 182.032516,202.986526 
	C192.281006,195.636780 202.561691,188.331955 212.828079,181.007172 
	C213.159348,185.877060 213.490616,190.746948 213.109558,195.875137 
	C211.678146,196.519592 210.904785,196.830261 210.247971,197.302902 
	C194.815186,208.408234 179.391998,219.526947 163.975616,230.655060 
	C161.626633,232.350632 159.319962,234.104797 156.993729,235.831863 
z"/>
<path fill="#3C79A9" opacity="1.000000" stroke="none" 
	d="
M106.444534,138.914337 
	C105.105553,133.722839 109.186302,131.065063 111.770630,127.867188 
	C118.942024,118.993217 126.494667,110.428246 133.774323,101.639847 
	C134.852829,100.337822 135.269043,98.487206 135.991028,96.518677 
	C142.958923,95.991325 149.379471,97.512383 154.894806,102.583084 
	C152.833618,105.959969 150.799377,109.181107 148.368912,112.068764 
	C141.128540,120.671165 133.547821,128.993683 126.493835,137.743027 
	C123.897598,140.963242 121.690292,141.283966 118.234695,139.091370 
	C114.217735,139.029419 110.558617,139.007385 106.444534,138.914337 
z"/>
<path fill="#FFD53E" opacity="1.000000" stroke="none" 
	d="
M157.457458,235.907806 
	C159.319962,234.104797 161.626633,232.350632 163.975616,230.655060 
	C179.391998,219.526947 194.815186,208.408234 210.247971,197.302902 
	C210.904785,196.830261 211.678146,196.519592 212.746857,196.096405 
	C212.699463,209.442871 208.876556,221.688019 199.633133,231.535614 
	C197.282135,234.040298 192.876221,235.613052 189.318909,235.800537 
	C178.878784,236.350800 168.390579,235.988586 157.457458,235.907806 
z"/>
<path fill="#848688" opacity="1.000000" stroke="none" 
	d="
M80.269913,317.908630 
	C76.127495,316.304443 70.516487,315.184967 71.543213,310.486908 
	C72.134827,307.779816 77.404572,305.501556 80.990845,304.153595 
	C91.830254,300.079376 103.279655,300.352173 114.691353,299.823975 
	C128.131851,299.201935 141.298004,300.316467 154.328842,303.197754 
	C159.519974,304.345551 165.060196,305.579102 167.931076,311.027405 
	C163.350311,317.625732 156.297058,319.277954 149.261703,319.832581 
	C135.123566,320.947113 120.919434,321.939331 106.757141,321.768768 
	C98.047897,321.663910 89.365700,319.313416 80.269913,317.908630 
M127.546761,318.403259 
	C129.846527,318.263062 132.194427,318.369873 134.436340,317.932892 
	C139.628693,316.920898 144.846573,315.893372 149.885910,314.329987 
	C151.441437,313.847412 152.453766,311.613892 153.714813,310.182068 
	C152.451248,309.259979 151.295181,308.099548 149.899643,307.470001 
	C147.639267,306.450226 145.260696,305.222870 142.863861,305.054688 
	C131.129730,304.231201 119.374886,303.342377 107.623528,303.286682 
	C102.251266,303.261261 96.780151,304.780853 91.537994,306.254639 
	C89.480194,306.833160 87.925934,309.202820 86.142365,310.756744 
	C87.874367,312.268219 89.373962,314.429932 91.388809,315.150085 
	C95.094780,316.474640 99.074745,317.442596 102.992950,317.674957 
	C110.308228,318.108734 117.661026,317.909912 125.669731,317.978363 
	C126.117500,317.969788 126.565269,317.961212 127.546761,318.403259 
z"/>
<path fill="#FFD949" opacity="1.000000" stroke="none" 
	d="
M147.538696,240.091019 
	C146.527725,242.192566 145.441635,244.750641 143.515854,246.166779 
	C128.586945,257.144745 113.489594,267.893524 98.470825,278.749847 
	C97.574837,279.397491 96.906471,280.360016 96.063614,281.504333 
	C91.751244,280.138733 87.507454,278.444855 83.270355,276.127136 
	C84.686569,274.103119 85.943138,272.492950 87.530357,271.336639 
	C98.125160,263.618317 108.806755,256.019196 119.416054,248.320602 
	C121.067711,247.122055 122.494102,245.613098 124.029533,244.243332 
	C122.377342,242.432495 121.216415,241.160080 120.055489,239.887680 
	C129.061859,239.931305 138.068222,239.974930 147.538696,240.091019 
z"/>
<path fill="#FFDD53" opacity="1.000000" stroke="none" 
	d="
M212.796692,180.641541 
	C202.561691,188.331955 192.281006,195.636780 182.032516,202.986526 
	C169.196976,212.191605 156.353119,221.386200 143.621628,230.733505 
	C142.361954,231.658310 141.859222,233.614120 141.001648,235.462448 
	C135.639694,235.883316 130.281296,235.933121 124.460403,235.907806 
	C129.620743,231.581207 135.151047,227.200424 140.882736,223.101227 
	C162.974945,207.301346 185.137268,191.599533 207.249603,175.827744 
	C208.566727,174.888260 209.675400,173.656509 210.961548,172.223846 
	C211.616455,174.683258 212.190887,177.479584 212.796692,180.641541 
z"/>
<path fill="#4888BB" opacity="1.000000" stroke="none" 
	d="
M89.041367,124.886238 
	C84.420204,129.321762 79.799034,133.757278 75.084808,138.509094 
	C74.363846,138.452393 73.189766,138.081589 73.188255,137.706070 
	C73.154060,129.232040 72.315598,120.616676 73.568077,112.320740 
	C74.958321,103.112389 82.837303,99.039871 91.048546,97.253426 
	C98.214592,95.694374 105.724991,95.718102 113.535667,95.105331 
	C108.502304,100.030716 106.409622,108.255928 97.827652,110.855354 
	C93.107254,108.954948 89.592323,109.889427 87.277710,113.474060 
	C84.643608,117.553474 85.396309,121.552498 89.041367,124.886238 
z"/>
<path fill="#FFE771" opacity="1.000000" stroke="none" 
	d="
M199.885727,147.563248 
	C198.779846,149.538528 197.808548,151.580551 196.206619,152.781128 
	C189.326645,157.937347 182.330261,162.948196 175.209503,167.765457 
	C173.643280,168.824997 171.395416,168.876968 169.211029,169.145538 
	C168.960602,160.449585 168.960602,152.001038 168.960602,142.932892 
	C179.559479,143.939041 190.295135,140.227600 199.885727,147.563248 
z"/>
<path fill="#FFDD53" opacity="1.000000" stroke="none" 
	d="
M120.030975,239.502838 
	C121.216415,241.160080 122.377342,242.432495 124.029533,244.243332 
	C122.494102,245.613098 121.067711,247.122055 119.416054,248.320602 
	C108.806755,256.019196 98.125160,263.618317 87.530357,271.336639 
	C85.943138,272.492950 84.686569,274.103119 83.114388,275.804382 
	C80.311760,273.306732 77.671783,270.507965 75.102875,267.351257 
	C79.678474,264.851776 84.478836,263.165314 88.624069,260.470947 
	C96.498138,255.352829 104.108864,249.805115 111.596367,244.128983 
	C114.532822,241.902908 116.844254,238.852386 119.777130,236.109497 
	C120.078110,237.067093 120.042290,238.092560 120.030975,239.502838 
z"/>
<path fill="#3772A2" opacity="1.000000" stroke="none" 
	d="
M48.454353,235.908432 
	C47.953156,233.804169 47.042450,231.059097 48.026489,229.825546 
	C54.085899,222.229874 60.553745,214.958588 66.948761,207.634430 
	C67.556374,206.938522 68.598549,206.622040 69.790497,206.093781 
	C69.568077,215.844711 68.994133,225.631271 68.388031,235.966278 
	C62.017708,235.966278 55.469173,235.966278 48.454353,235.908432 
z"/>
<path fill="#646464" opacity="1.000000" stroke="none" 
	d="
M821.037781,125.236389 
	C819.809753,127.826797 820.411804,131.769028 815.700989,130.738846 
	C814.724121,127.887573 813.699890,124.898102 812.675598,121.908623 
	C812.371948,121.958435 812.068237,122.008240 811.764526,122.058052 
	C811.764526,124.945053 811.764526,127.832062 811.764526,130.719070 
	C811.266724,130.923584 810.768860,131.128113 810.271057,131.332626 
	C809.507385,130.090393 808.168457,128.885376 808.085144,127.599106 
	C807.806580,123.294205 807.790405,118.947182 808.092163,114.645645 
	C808.179504,113.399696 809.671631,112.252289 810.519775,111.059708 
	C811.687683,111.934425 813.384460,112.565651 813.920959,113.731026 
	C815.342834,116.819595 816.263062,120.139091 817.335938,123.231499 
	C821.565796,120.227852 818.071289,111.317848 826.980835,110.968117 
	C826.980835,117.160530 827.072998,122.784607 826.883179,128.399170 
	C826.854126,129.257416 825.522217,130.071655 824.792969,130.906281 
	C824.201843,130.101303 823.201965,129.344345 823.100647,128.481827 
	C822.852661,126.370285 823.019653,124.210030 823.019653,120.890770 
	C822.038574,122.912849 821.565491,123.887939 821.037781,125.236389 
z"/>
<path fill="#FFE05D" opacity="1.000000" stroke="none" 
	d="
M265.536804,157.230087 
	C265.929565,196.028976 265.944672,235.035553 265.937439,274.509216 
	C265.616211,274.298981 265.055786,273.621613 265.055878,272.944275 
	C265.060760,234.442108 265.112274,195.939926 265.536804,157.230087 
z"/>
<path fill="#646464" opacity="1.000000" stroke="none" 
	d="
M799.874512,130.793350 
	C798.630005,129.821762 797.190918,128.780762 797.117554,127.651077 
	C796.840210,123.379570 797.005981,119.079277 797.005981,114.737801 
	C794.748413,114.105034 792.816040,113.563416 790.883667,113.021805 
	C790.995422,112.573952 791.107117,112.126106 791.218872,111.678253 
	C796.423462,111.678253 801.628113,111.678253 806.832703,111.678253 
	C806.910034,112.174255 806.987427,112.670258 807.064758,113.166252 
	C805.220154,113.632057 803.375549,114.097862 801.394043,114.598228 
	C801.033691,119.930397 800.670410,125.306816 799.874512,130.793350 
z"/>
<path fill="#646464" opacity="1.000000" stroke="none" 
	d="
M109.538216,186.961945 
	C121.047081,186.978287 132.088318,187.024811 143.599823,187.106140 
	C142.341812,187.438644 140.614838,187.986038 138.885071,187.994980 
	C123.562706,188.074127 108.239861,188.057800 92.451431,187.999634 
	C97.680672,187.617111 103.375626,187.304626 109.538216,186.961945 
z"/>
<path fill="#646464" opacity="1.000000" stroke="none" 
	d="
M735.234741,129.124573 
	C732.207703,130.649170 730.361328,130.148300 730.725647,126.754059 
	C730.829956,125.781982 732.090027,124.191383 732.868591,124.161903 
	C736.365356,124.029472 736.342468,126.300514 735.234741,129.124573 
z"/>
<path fill="#FFD949" opacity="1.000000" stroke="none" 
	d="
M164.872864,240.738922 
	C164.595871,240.875748 164.391602,240.706360 164.108368,240.331635 
	C164.302353,240.267563 164.607742,240.369705 164.872864,240.738922 
z"/>
<path fill="#000000" opacity="1.000000" stroke="none" 
	d="
M304.875580,152.000793 
	C313.519196,152.214417 320.158630,156.855942 322.855835,164.887405 
	C327.330872,178.212631 327.368744,191.968536 324.565826,205.483749 
	C320.601288,224.600281 305.289673,226.896286 291.242401,221.191864 
	C284.346619,218.391586 281.176727,214.847321 281.746582,206.701492 
	C282.684601,193.292923 282.001404,179.770920 282.000977,166.296738 
	C282.000671,157.662735 281.896820,157.350067 289.972504,154.682938 
	C294.582245,153.160461 299.593719,152.854477 304.875580,152.000793 
z"/>
<path fill="#000000" opacity="1.000000" stroke="none" 
	d="
M618.984619,204.833130 
	C615.777466,190.605530 615.364868,176.759232 621.381042,163.711121 
	C625.037720,155.780273 632.863831,152.488159 641.276733,152.136978 
	C649.795166,151.781387 658.552795,158.609009 661.717407,167.569626 
	C667.097534,182.803452 666.712219,198.135284 660.364197,212.919449 
	C657.020691,220.706329 650.896118,225.335602 639.621460,224.945114 
	C630.496277,224.629059 624.954895,218.980682 621.184753,211.263016 
	C620.254578,209.358902 619.726196,207.258484 618.984619,204.833130 
z"/>
<path fill="#000000" opacity="1.000000" stroke="none" 
	d="
M137.014786,261.090027 
	C138.260513,255.241760 141.137695,253.175674 146.284149,254.014893 
	C149.294083,254.505722 152.318253,258.819000 151.996704,262.162506 
	C151.632523,265.949402 148.258286,269.011230 144.460693,269.000732 
	C139.515594,268.987061 137.504456,266.962738 137.014786,261.090027 
z"/>
<path fill="#000000" opacity="1.000000" stroke="none" 
	d="
M89.430634,124.930313 
	C85.396309,121.552498 84.643608,117.553474 87.277710,113.474060 
	C89.592323,109.889427 93.107254,108.954948 97.501328,111.001488 
	C102.730782,117.428429 101.492874,123.902924 94.986595,125.439148 
	C93.389946,125.816132 91.548691,125.157112 89.430634,124.930313 
z"/>
<path fill="#989898" opacity="1.000000" stroke="none" 
	d="
M124.998207,317.974365 
	C117.661026,317.909912 110.308228,318.108734 102.992950,317.674957 
	C99.074745,317.442596 95.094780,316.474640 91.388809,315.150085 
	C89.373962,314.429932 87.874367,312.268219 86.142365,310.756744 
	C87.925934,309.202820 89.480194,306.833160 91.537994,306.254639 
	C96.780151,304.780853 102.251266,303.261261 107.623528,303.286682 
	C119.374886,303.342377 131.129730,304.231201 142.863861,305.054688 
	C145.260696,305.222870 147.639267,306.450226 149.899643,307.470001 
	C151.295181,308.099548 152.451248,309.259979 153.714813,310.182068 
	C152.453766,311.613892 151.441437,313.847412 149.885910,314.329987 
	C144.846573,315.893372 139.628693,316.920898 134.436340,317.932892 
	C132.194427,318.369873 129.846527,318.263062 127.484314,317.868958 
	C131.515564,316.201752 135.654907,315.205536 139.678436,313.862457 
	C141.102112,313.387207 142.243362,312.065887 143.513535,311.130798 
	C142.249100,310.005646 141.168701,308.382233 139.690369,307.836182 
	C130.143997,304.309814 120.213867,304.581543 110.293900,305.467834 
	C106.849213,305.775604 103.358017,306.320526 100.077156,307.356171 
	C98.628571,307.813416 97.489594,309.663086 96.589485,311.115692 
	C96.398430,311.424011 97.774612,313.406647 98.572464,313.510193 
	C103.694649,314.174866 108.856865,314.530975 114.366371,315.151489 
	C117.820358,315.200745 120.913902,315.086975 124.136246,315.265228 
	C124.509430,316.362946 124.753822,317.168640 124.998207,317.974365 
z"/>
<path fill="#A3A3A3" opacity="1.000000" stroke="none" 
	d="
M114.005936,314.988464 
	C108.856865,314.530975 103.694649,314.174866 98.572464,313.510193 
	C97.774612,313.406647 96.398430,311.424011 96.589485,311.115692 
	C97.489594,309.663086 98.628571,307.813416 100.077156,307.356171 
	C103.358017,306.320526 106.849213,305.775604 110.293900,305.467834 
	C120.213867,304.581543 130.143997,304.309814 139.690369,307.836182 
	C141.168701,308.382233 142.249100,310.005646 143.513535,311.130798 
	C142.243362,312.065887 141.102112,313.387207 139.678436,313.862457 
	C135.654907,315.205536 131.515564,316.201752 127.217453,317.643616 
	C126.565269,317.961212 126.117500,317.969788 125.333969,317.976379 
	C124.753822,317.168640 124.509430,316.362946 124.378601,315.006927 
	C127.008789,313.327576 129.525421,312.198547 132.540512,310.845856 
	C126.259254,306.374054 110.161613,307.060608 106.325256,311.493500 
	C108.939812,312.683197 111.472878,313.835846 114.005936,314.988464 
z"/>
<path fill="#ADADAD" opacity="1.000000" stroke="none" 
	d="
M114.366371,315.151489 
	C111.472878,313.835846 108.939812,312.683197 106.325256,311.493500 
	C110.161613,307.060608 126.259254,306.374054 132.540512,310.845856 
	C129.525421,312.198547 127.008789,313.327576 124.249809,314.714935 
	C120.913902,315.086975 117.820358,315.200745 114.366371,315.151489 
z"/>
</svg>